# xmcd CD database file
#
# Track frame offsets:
#	150
#	15417
#	51636
#	73513
#	107048
#	135188
#	176207
#
# Disc length: 2719 seconds
#
# Revision: 0
# Processed by: cddbd v1.4PL0 Copyright (c) Steve Scherf et al.
# Submitted via: CDex 1.40Beta8
#
DISCID=5b0a9d07
DTITLE=Billy Whitefox - Sacred Journey
DYEAR=1999
DGENRE=Native American
TTITLE0=Eagle Vision
TTITLE1=Song of the Raindancer
TTITLE2=Sunshine
TTITLE3=Healing Waters
TTITLE4=Journey to the Heavens
TTITLE5=Wolf's Prayer
TTITLE6=Song for our Ancestors
EXTD=YEAR: 1999 ID3G: 64
EXTT0=
EXTT1=
EXTT2=
EXTT3=
EXTT4=
EXTT5=
EXTT6=
PLAYORDER=
